# xmcd
# 
# Track frame offsets:
#     150
#     18762
#     40813
#     63351
# 
# Disc length: 962
# 
# Revision: 2
# Processed by: cddbd v1.5.2PL0 Copyright (c) Steve Scherf et al.
# Submitted via: BonkEnc v1.0.8
# 
DISCID=2603c004
DTITLE=原田ひとみ - emotional flutter
DYEAR=2008
DGENRE=Game
TTITLE0=emotional flutter
TTITLE1=ever forever
TTITLE2=悠久の翼
TTITLE3=emotional flutter（Movie ver.）
EXTD=
EXTT0=
EXTT1=
EXTT2=
EXTT3=
PLAYORDER=
